<mxfile host="app.diagrams.net" modified="2023-04-06T13:15:42.981Z" agent="Mozilla/5.0 (Macintosh; Intel Mac OS X 10_15_7) AppleWebKit/537.36 (KHTML, like Gecko) Chrome/111.0.0.0 Safari/537.36" etag="pkZPr3RIiLtMv5Qt4P0d" version="21.1.4" type="github">
  <diagram name="Page-1" id="x3qRDm9B7H_OVfXoaRfD">
    <mxGraphModel dx="1207" dy="681" grid="1" gridSize="10" guides="1" tooltips="1" connect="1" arrows="1" fold="1" page="1" pageScale="1" pageWidth="850" pageHeight="1100" math="0" shadow="0">
      <root>
        <mxCell id="0" />
        <mxCell id="1" parent="0" />
        <mxCell id="MzEPvq9lY3MwqnpipSgU-8" value="&lt;font color=&quot;#ffffff&quot;&gt;Employee&lt;/font&gt;" style="rounded=0;whiteSpace=wrap;html=1;direction=south;fillColor=#13538A;" parent="1" vertex="1">
          <mxGeometry x="80" y="120" width="80" height="120" as="geometry" />
        </mxCell>
        <mxCell id="nVGY_BLCJTJtmA_UGDGf-1" value="&lt;font color=&quot;#ffffff&quot;&gt;Supervisor&lt;/font&gt;" style="rounded=0;whiteSpace=wrap;html=1;direction=south;fillColor=#2C92D5;" parent="1" vertex="1">
          <mxGeometry x="80" y="240" width="80" height="120" as="geometry" />
        </mxCell>
        <mxCell id="nVGY_BLCJTJtmA_UGDGf-2" value="&lt;font color=&quot;#ffffff&quot;&gt;HR&lt;/font&gt;" style="rounded=0;whiteSpace=wrap;html=1;direction=south;fillColor=#37C9EF;" parent="1" vertex="1">
          <mxGeometry x="80" y="360" width="80" height="120" as="geometry" />
        </mxCell>
        <mxCell id="nVGY_BLCJTJtmA_UGDGf-3" value="&lt;font color=&quot;#ffffff&quot;&gt;CEO&lt;/font&gt;" style="rounded=0;whiteSpace=wrap;html=1;direction=south;fillColor=#3EDAD8;" parent="1" vertex="1">
          <mxGeometry x="80" y="480" width="80" height="120" as="geometry" />
        </mxCell>
        <mxCell id="fqvqRyCJQWTvvMZPAVhp-2" value="" style="edgeStyle=orthogonalEdgeStyle;rounded=0;orthogonalLoop=1;jettySize=auto;html=1;endArrow=block;endFill=1;" edge="1" parent="1" source="nVGY_BLCJTJtmA_UGDGf-4" target="nVGY_BLCJTJtmA_UGDGf-13">
          <mxGeometry relative="1" as="geometry" />
        </mxCell>
        <mxCell id="nVGY_BLCJTJtmA_UGDGf-4" value="Performance review notice sent out" style="ellipse;whiteSpace=wrap;html=1;" parent="1" vertex="1">
          <mxGeometry x="190" y="260" width="120" height="80" as="geometry" />
        </mxCell>
        <mxCell id="fqvqRyCJQWTvvMZPAVhp-12" style="edgeStyle=orthogonalEdgeStyle;shape=connector;rounded=0;orthogonalLoop=1;jettySize=auto;html=1;exitX=1;exitY=0.5;exitDx=0;exitDy=0;labelBackgroundColor=default;strokeColor=default;fontFamily=Helvetica;fontSize=11;fontColor=default;endArrow=block;endFill=1;" edge="1" parent="1" source="nVGY_BLCJTJtmA_UGDGf-11" target="nVGY_BLCJTJtmA_UGDGf-18">
          <mxGeometry relative="1" as="geometry" />
        </mxCell>
        <mxCell id="nVGY_BLCJTJtmA_UGDGf-11" value="Undergo 1-on-1 interview" style="rounded=1;whiteSpace=wrap;html=1;" parent="1" vertex="1">
          <mxGeometry x="380" y="150" width="120" height="60" as="geometry" />
        </mxCell>
        <mxCell id="fqvqRyCJQWTvvMZPAVhp-11" value="" style="edgeStyle=orthogonalEdgeStyle;shape=connector;rounded=0;orthogonalLoop=1;jettySize=auto;html=1;labelBackgroundColor=default;strokeColor=default;fontFamily=Helvetica;fontSize=11;fontColor=default;endArrow=block;endFill=1;" edge="1" parent="1" source="nVGY_BLCJTJtmA_UGDGf-13" target="nVGY_BLCJTJtmA_UGDGf-11">
          <mxGeometry relative="1" as="geometry" />
        </mxCell>
        <mxCell id="nVGY_BLCJTJtmA_UGDGf-13" value="Schedule 1-on-1 with employee" style="rounded=1;whiteSpace=wrap;html=1;" parent="1" vertex="1">
          <mxGeometry x="380" y="270" width="120" height="60" as="geometry" />
        </mxCell>
        <mxCell id="fqvqRyCJQWTvvMZPAVhp-13" value="" style="edgeStyle=orthogonalEdgeStyle;shape=connector;rounded=0;orthogonalLoop=1;jettySize=auto;html=1;labelBackgroundColor=default;strokeColor=default;fontFamily=Helvetica;fontSize=11;fontColor=default;endArrow=block;endFill=1;" edge="1" parent="1" source="nVGY_BLCJTJtmA_UGDGf-18" target="nVGY_BLCJTJtmA_UGDGf-21">
          <mxGeometry relative="1" as="geometry" />
        </mxCell>
        <mxCell id="nVGY_BLCJTJtmA_UGDGf-18" value="Fill up and submit appraisal form" style="rounded=1;whiteSpace=wrap;html=1;" parent="1" vertex="1">
          <mxGeometry x="600" y="270" width="120" height="60" as="geometry" />
        </mxCell>
        <mxCell id="fqvqRyCJQWTvvMZPAVhp-15" value="" style="edgeStyle=orthogonalEdgeStyle;shape=connector;rounded=0;orthogonalLoop=1;jettySize=auto;html=1;labelBackgroundColor=default;strokeColor=default;fontFamily=Helvetica;fontSize=11;fontColor=default;endArrow=block;endFill=1;" edge="1" parent="1" source="nVGY_BLCJTJtmA_UGDGf-19" target="nVGY_BLCJTJtmA_UGDGf-20">
          <mxGeometry relative="1" as="geometry" />
        </mxCell>
        <mxCell id="nVGY_BLCJTJtmA_UGDGf-19" value="Consolidate to excel summary" style="rounded=1;whiteSpace=wrap;html=1;" parent="1" vertex="1">
          <mxGeometry x="800" y="390" width="120" height="60" as="geometry" />
        </mxCell>
        <mxCell id="fqvqRyCJQWTvvMZPAVhp-16" value="" style="edgeStyle=orthogonalEdgeStyle;shape=connector;rounded=0;orthogonalLoop=1;jettySize=auto;html=1;labelBackgroundColor=default;strokeColor=default;fontFamily=Helvetica;fontSize=11;fontColor=default;endArrow=block;endFill=1;" edge="1" parent="1" source="nVGY_BLCJTJtmA_UGDGf-20" target="nVGY_BLCJTJtmA_UGDGf-23">
          <mxGeometry relative="1" as="geometry" />
        </mxCell>
        <mxCell id="nVGY_BLCJTJtmA_UGDGf-20" value="Review appraisal" style="rounded=1;whiteSpace=wrap;html=1;" parent="1" vertex="1">
          <mxGeometry x="800" y="510" width="120" height="60" as="geometry" />
        </mxCell>
        <mxCell id="fqvqRyCJQWTvvMZPAVhp-14" value="" style="edgeStyle=orthogonalEdgeStyle;shape=connector;rounded=0;orthogonalLoop=1;jettySize=auto;html=1;labelBackgroundColor=default;strokeColor=default;fontFamily=Helvetica;fontSize=11;fontColor=default;endArrow=block;endFill=1;" edge="1" parent="1" source="nVGY_BLCJTJtmA_UGDGf-21" target="nVGY_BLCJTJtmA_UGDGf-19">
          <mxGeometry relative="1" as="geometry" />
        </mxCell>
        <mxCell id="nVGY_BLCJTJtmA_UGDGf-21" value="Performance review period ends" style="ellipse;whiteSpace=wrap;html=1;" parent="1" vertex="1">
          <mxGeometry x="600" y="380" width="120" height="80" as="geometry" />
        </mxCell>
        <mxCell id="fqvqRyCJQWTvvMZPAVhp-18" value="" style="edgeStyle=orthogonalEdgeStyle;shape=connector;rounded=0;orthogonalLoop=1;jettySize=auto;html=1;labelBackgroundColor=default;strokeColor=default;fontFamily=Helvetica;fontSize=11;fontColor=default;endArrow=block;endFill=1;" edge="1" parent="1" source="nVGY_BLCJTJtmA_UGDGf-22" target="nVGY_BLCJTJtmA_UGDGf-25">
          <mxGeometry relative="1" as="geometry" />
        </mxCell>
        <mxCell id="nVGY_BLCJTJtmA_UGDGf-22" value="Update new position" style="rounded=1;whiteSpace=wrap;html=1;" parent="1" vertex="1">
          <mxGeometry x="965" y="390" width="120" height="60" as="geometry" />
        </mxCell>
        <mxCell id="fqvqRyCJQWTvvMZPAVhp-17" value="" style="edgeStyle=orthogonalEdgeStyle;shape=connector;rounded=0;orthogonalLoop=1;jettySize=auto;html=1;labelBackgroundColor=default;strokeColor=default;fontFamily=Helvetica;fontSize=11;fontColor=default;endArrow=block;endFill=1;" edge="1" parent="1" source="nVGY_BLCJTJtmA_UGDGf-23" target="nVGY_BLCJTJtmA_UGDGf-22">
          <mxGeometry relative="1" as="geometry" />
        </mxCell>
        <mxCell id="fqvqRyCJQWTvvMZPAVhp-19" style="edgeStyle=orthogonalEdgeStyle;shape=connector;rounded=0;orthogonalLoop=1;jettySize=auto;html=1;exitX=1;exitY=0.5;exitDx=0;exitDy=0;labelBackgroundColor=default;strokeColor=default;fontFamily=Helvetica;fontSize=11;fontColor=default;endArrow=block;endFill=1;" edge="1" parent="1" source="nVGY_BLCJTJtmA_UGDGf-23" target="nVGY_BLCJTJtmA_UGDGf-25">
          <mxGeometry relative="1" as="geometry" />
        </mxCell>
        <mxCell id="nVGY_BLCJTJtmA_UGDGf-23" value="To be promoted?" style="rhombus;whiteSpace=wrap;html=1;" parent="1" vertex="1">
          <mxGeometry x="980" y="495" width="90" height="90" as="geometry" />
        </mxCell>
        <mxCell id="fqvqRyCJQWTvvMZPAVhp-21" style="edgeStyle=orthogonalEdgeStyle;shape=connector;rounded=0;orthogonalLoop=1;jettySize=auto;html=1;exitX=1;exitY=0.5;exitDx=0;exitDy=0;entryX=0.5;entryY=1;entryDx=0;entryDy=0;labelBackgroundColor=default;strokeColor=default;fontFamily=Helvetica;fontSize=11;fontColor=default;endArrow=block;endFill=1;" edge="1" parent="1" source="nVGY_BLCJTJtmA_UGDGf-24" target="nVGY_BLCJTJtmA_UGDGf-26">
          <mxGeometry relative="1" as="geometry" />
        </mxCell>
        <mxCell id="fqvqRyCJQWTvvMZPAVhp-22" style="edgeStyle=orthogonalEdgeStyle;shape=connector;rounded=0;orthogonalLoop=1;jettySize=auto;html=1;exitX=0.5;exitY=1;exitDx=0;exitDy=0;entryX=0.5;entryY=1;entryDx=0;entryDy=0;labelBackgroundColor=default;strokeColor=default;fontFamily=Helvetica;fontSize=11;fontColor=default;endArrow=block;endFill=1;" edge="1" parent="1" source="nVGY_BLCJTJtmA_UGDGf-24" target="nVGY_BLCJTJtmA_UGDGf-31">
          <mxGeometry relative="1" as="geometry" />
        </mxCell>
        <mxCell id="nVGY_BLCJTJtmA_UGDGf-24" value="PIP needed?" style="rhombus;whiteSpace=wrap;html=1;" parent="1" vertex="1">
          <mxGeometry x="1320" y="495" width="90" height="90" as="geometry" />
        </mxCell>
        <mxCell id="fqvqRyCJQWTvvMZPAVhp-20" style="edgeStyle=orthogonalEdgeStyle;shape=connector;rounded=0;orthogonalLoop=1;jettySize=auto;html=1;exitX=1;exitY=0.5;exitDx=0;exitDy=0;entryX=0.5;entryY=0;entryDx=0;entryDy=0;labelBackgroundColor=default;strokeColor=default;fontFamily=Helvetica;fontSize=11;fontColor=default;endArrow=block;endFill=1;" edge="1" parent="1" source="nVGY_BLCJTJtmA_UGDGf-25" target="nVGY_BLCJTJtmA_UGDGf-24">
          <mxGeometry relative="1" as="geometry" />
        </mxCell>
        <mxCell id="nVGY_BLCJTJtmA_UGDGf-25" value="Update new wages and issue bonuses" style="rounded=1;whiteSpace=wrap;html=1;" parent="1" vertex="1">
          <mxGeometry x="1155" y="390" width="120" height="60" as="geometry" />
        </mxCell>
        <mxCell id="fqvqRyCJQWTvvMZPAVhp-23" style="edgeStyle=orthogonalEdgeStyle;shape=connector;rounded=0;orthogonalLoop=1;jettySize=auto;html=1;exitX=0.5;exitY=0;exitDx=0;exitDy=0;entryX=0;entryY=0.5;entryDx=0;entryDy=0;labelBackgroundColor=default;strokeColor=default;fontFamily=Helvetica;fontSize=11;fontColor=default;endArrow=block;endFill=1;" edge="1" parent="1" source="nVGY_BLCJTJtmA_UGDGf-26" target="nVGY_BLCJTJtmA_UGDGf-31">
          <mxGeometry relative="1" as="geometry" />
        </mxCell>
        <mxCell id="nVGY_BLCJTJtmA_UGDGf-26" value="Fill out PIP with inputs from HR" style="rounded=1;whiteSpace=wrap;html=1;" parent="1" vertex="1">
          <mxGeometry x="1430" y="270" width="120" height="60" as="geometry" />
        </mxCell>
        <mxCell id="nVGY_BLCJTJtmA_UGDGf-31" value="Employee receives performance review results" style="ellipse;whiteSpace=wrap;html=1;" parent="1" vertex="1">
          <mxGeometry x="1580" y="130" width="120" height="80" as="geometry" />
        </mxCell>
        <mxCell id="nVGY_BLCJTJtmA_UGDGf-61" value="" style="endArrow=none;dashed=1;html=1;strokeWidth=2;rounded=0;labelBackgroundColor=default;strokeColor=default;fontFamily=Helvetica;fontSize=11;fontColor=default;shape=connector;exitX=0;exitY=0;exitDx=0;exitDy=0;dashPattern=1 4;" parent="1" source="nVGY_BLCJTJtmA_UGDGf-1" edge="1">
          <mxGeometry width="50" height="50" relative="1" as="geometry">
            <mxPoint x="550" y="400" as="sourcePoint" />
            <mxPoint x="2360" y="240" as="targetPoint" />
          </mxGeometry>
        </mxCell>
        <mxCell id="nVGY_BLCJTJtmA_UGDGf-62" value="" style="endArrow=none;html=1;strokeWidth=2;rounded=0;labelBackgroundColor=default;strokeColor=default;fontFamily=Helvetica;fontSize=11;fontColor=default;shape=connector;exitX=0;exitY=0;exitDx=0;exitDy=0;dashed=1;dashPattern=1 4;" parent="1" edge="1">
          <mxGeometry width="50" height="50" relative="1" as="geometry">
            <mxPoint x="160" y="358.82" as="sourcePoint" />
            <mxPoint x="2360" y="358.82" as="targetPoint" />
          </mxGeometry>
        </mxCell>
        <mxCell id="nVGY_BLCJTJtmA_UGDGf-63" value="" style="endArrow=none;dashed=1;html=1;strokeWidth=2;rounded=0;labelBackgroundColor=default;strokeColor=default;fontFamily=Helvetica;fontSize=11;fontColor=default;shape=connector;exitX=0;exitY=0;exitDx=0;exitDy=0;dashPattern=1 4;" parent="1" edge="1">
          <mxGeometry width="50" height="50" relative="1" as="geometry">
            <mxPoint x="160" y="480" as="sourcePoint" />
            <mxPoint x="2360" y="480" as="targetPoint" />
          </mxGeometry>
        </mxCell>
        <mxCell id="nVGY_BLCJTJtmA_UGDGf-65" value="[14 days]&lt;br&gt;W2" style="text;html=1;strokeColor=none;fillColor=none;align=center;verticalAlign=middle;whiteSpace=wrap;rounded=0;fontSize=11;fontFamily=Helvetica;fontColor=default;" parent="1" vertex="1">
          <mxGeometry x="670" y="340" width="60" height="30" as="geometry" />
        </mxCell>
        <mxCell id="nVGY_BLCJTJtmA_UGDGf-67" value="Yes" style="text;html=1;strokeColor=none;fillColor=none;align=center;verticalAlign=middle;whiteSpace=wrap;rounded=0;fontSize=11;fontFamily=Helvetica;fontColor=default;" parent="1" vertex="1">
          <mxGeometry x="1430" y="410" width="60" height="30" as="geometry" />
        </mxCell>
        <mxCell id="nVGY_BLCJTJtmA_UGDGf-68" value="[14 days]&lt;br&gt;W4" style="text;html=1;strokeColor=none;fillColor=none;align=center;verticalAlign=middle;whiteSpace=wrap;rounded=0;fontSize=11;fontFamily=Helvetica;fontColor=default;" parent="1" vertex="1">
          <mxGeometry x="1290" y="390" width="60" height="30" as="geometry" />
        </mxCell>
        <mxCell id="fqvqRyCJQWTvvMZPAVhp-24" value="[7 days]&lt;br&gt;W1" style="text;html=1;strokeColor=none;fillColor=none;align=center;verticalAlign=middle;whiteSpace=wrap;rounded=0;fontSize=11;fontFamily=Helvetica;fontColor=default;" vertex="1" parent="1">
          <mxGeometry x="440" y="240" width="60" height="30" as="geometry" />
        </mxCell>
        <mxCell id="fqvqRyCJQWTvvMZPAVhp-25" value="[7 days]&lt;br&gt;W3" style="text;html=1;strokeColor=none;fillColor=none;align=center;verticalAlign=middle;whiteSpace=wrap;rounded=0;fontSize=11;fontFamily=Helvetica;fontColor=default;" vertex="1" parent="1">
          <mxGeometry x="730" y="390" width="60" height="30" as="geometry" />
        </mxCell>
        <mxCell id="fqvqRyCJQWTvvMZPAVhp-26" value="Yes" style="text;html=1;strokeColor=none;fillColor=none;align=center;verticalAlign=middle;whiteSpace=wrap;rounded=0;fontSize=11;fontFamily=Helvetica;fontColor=default;" vertex="1" parent="1">
          <mxGeometry x="1025" y="480" width="60" height="30" as="geometry" />
        </mxCell>
        <mxCell id="fqvqRyCJQWTvvMZPAVhp-27" value="No" style="text;html=1;strokeColor=none;fillColor=none;align=center;verticalAlign=middle;whiteSpace=wrap;rounded=0;fontSize=11;fontFamily=Helvetica;fontColor=default;" vertex="1" parent="1">
          <mxGeometry x="1155" y="510" width="60" height="30" as="geometry" />
        </mxCell>
        <mxCell id="fqvqRyCJQWTvvMZPAVhp-28" value="No" style="text;html=1;strokeColor=none;fillColor=none;align=center;verticalAlign=middle;whiteSpace=wrap;rounded=0;fontSize=11;fontFamily=Helvetica;fontColor=default;" vertex="1" parent="1">
          <mxGeometry x="1580" y="410" width="60" height="30" as="geometry" />
        </mxCell>
        <mxCell id="fqvqRyCJQWTvvMZPAVhp-29" value="" style="endArrow=classic;startArrow=classic;html=1;rounded=0;labelBackgroundColor=default;strokeColor=default;fontFamily=Helvetica;fontSize=11;fontColor=default;shape=connector;" edge="1" parent="1">
          <mxGeometry width="50" height="50" relative="1" as="geometry">
            <mxPoint x="560" y="640" as="sourcePoint" />
            <mxPoint x="1603" y="640" as="targetPoint" />
          </mxGeometry>
        </mxCell>
        <mxCell id="fqvqRyCJQWTvvMZPAVhp-30" value="Process cycle time of 42 days" style="text;html=1;strokeColor=none;fillColor=none;align=center;verticalAlign=middle;whiteSpace=wrap;rounded=0;fontSize=11;fontFamily=Helvetica;fontColor=default;" vertex="1" parent="1">
          <mxGeometry x="965" y="650" width="200" height="30" as="geometry" />
        </mxCell>
      </root>
    </mxGraphModel>
  </diagram>
</mxfile>
